<svg width="363" height="122" viewBox="0 0 363 122" fill="none" xmlns="http://www.w3.org/2000/svg">
<g id="Group 15">
<path id="TM" d="M349.44 31.87H347.04V31H352.83V31.87H350.43V38H349.44V31.87ZM360.409 38L360.399 32.9L357.869 37.15H357.409L354.879 32.93V38H353.919V31H354.739L357.659 35.92L360.539 31H361.359L361.369 38H360.409Z" fill="black"/>
<g id="Group 14">
<path id="muzam" d="M76.7 41.9C83.3667 41.9 88.6667 43.9 92.6 47.9C96.6 51.9 98.6 57.9333 98.6 66V97H79.6V69.1C79.6 65.3 78.8667 62.5 77.4 60.7C76 58.9 74 58 71.4 58C68.5333 58 66.2333 59 64.5 61C62.7667 63 61.9 66.0333 61.9 70.1V97H42.9V69.1C42.9 61.7 40.1667 58 34.7 58C31.7667 58 29.4333 59 27.7 61C25.9667 63 25.1 66.0333 25.1 70.1V97H6.1V42.8H24.2V48.5C26.2 46.3 28.5667 44.6667 31.3 43.6C34.1 42.4667 37.1333 41.9 40.4 41.9C44.2 41.9 47.6 42.6 50.6 44C53.6 45.4 56.0333 47.5333 57.9 50.4C60.0333 47.6667 62.7333 45.5667 66 44.1C69.2667 42.6333 72.8333 41.9 76.7 41.9ZM156.592 42.8V97H138.492V91.2C136.492 93.4 134.092 95.0667 131.292 96.2C128.492 97.3333 125.526 97.9 122.392 97.9C115.392 97.9 109.792 95.8333 105.592 91.7C101.459 87.5667 99.3922 81.3667 99.3922 73.1V42.8H118.392V70C118.392 74.0667 119.159 77.0333 120.692 78.9C122.226 80.7667 124.459 81.7 127.392 81.7C130.392 81.7 132.826 80.6667 134.692 78.6C136.626 76.4667 137.592 73.2333 137.592 68.9V42.8H156.592ZM208.03 82.8V97H158.03V85.8L183.13 56.9H158.73V42.8H207.03V53.9L181.93 82.8H208.03ZM233.997 41.9C242.997 41.9 249.864 43.9667 254.597 48.1C259.33 52.1667 261.697 58.4333 261.697 66.9V97H243.997V90C241.264 95.2667 235.93 97.9 227.997 97.9C223.797 97.9 220.164 97.1667 217.097 95.7C214.03 94.2333 211.697 92.2667 210.097 89.8C208.564 87.2667 207.797 84.4 207.797 81.2C207.797 76.0667 209.764 72.1 213.697 69.3C217.63 66.4333 223.697 65 231.897 65H242.697C242.364 59.2667 238.53 56.4 231.197 56.4C228.597 56.4 225.964 56.8333 223.297 57.7C220.63 58.5 218.364 59.6333 216.497 61.1L210.097 48.2C213.097 46.2 216.73 44.6667 220.997 43.6C225.33 42.4667 229.664 41.9 233.997 41.9ZM233.297 85.9C235.497 85.9 237.43 85.3667 239.097 84.3C240.764 83.2333 241.964 81.6667 242.697 79.6V74.9H234.497C228.964 74.9 226.197 76.7333 226.197 80.4C226.197 82.0667 226.83 83.4 228.097 84.4C229.364 85.4 231.097 85.9 233.297 85.9ZM333.29 41.9C339.957 41.9 345.257 43.9 349.19 47.9C353.19 51.9 355.19 57.9333 355.19 66V97H336.19V69.1C336.19 65.3 335.457 62.5 333.99 60.7C332.59 58.9 330.59 58 327.99 58C325.123 58 322.823 59 321.09 61C319.357 63 318.49 66.0333 318.49 70.1V97H299.49V69.1C299.49 61.7 296.757 58 291.29 58C288.357 58 286.023 59 284.29 61C282.557 63 281.69 66.0333 281.69 70.1V97H262.69V42.8H280.79V48.5C282.79 46.3 285.157 44.6667 287.89 43.6C290.69 42.4667 293.723 41.9 296.99 41.9C300.79 41.9 304.19 42.6 307.19 44C310.19 45.4 312.623 47.5333 314.49 50.4C316.623 47.6667 319.323 45.5667 322.59 44.1C325.857 42.6333 329.423 41.9 333.29 41.9Z" fill="#202020"/>
<line id="Line 17" x1="138.1" y1="76" x2="138.1" y2="97" stroke="#202020"/>
<line id="Line 14" x1="242" y1="64.5" x2="262" y2="64.5" stroke="#D6D6D6"/>
<line id="Line 15" x1="160" y1="82.3" x2="184" y2="82.3" stroke="#D6D6D6"/>
<line id="Line 16" x1="137.1" y1="66" x2="137.1" y2="94" stroke="#D6D6D6"/>
<line id="Line 18" x1="281.3" y1="47" x2="281.3" y2="97" stroke="#D6D6D6"/>
<line id="Line 19" x1="24.7" y1="47" x2="24.6999" y2="97" stroke="#D6D6D6"/>
</g>
</g>
</svg>
