<svg width="454" height="122" viewBox="0 0 454 122" fill="none" xmlns="http://www.w3.org/2000/svg">
<g id="Group 15">
<path id="TM" d="M349.44 31.87H347.04V31H352.83V31.87H350.43V38H349.44V31.87ZM360.409 38L360.399 32.9L357.869 37.15H357.409L354.879 32.93V38H353.919V31H354.739L357.659 35.92L360.539 31H361.359L361.369 38H360.409Z" fill="black"/>
<g id="Group 14">
<path id="muzam" d="M76.7 41.9C83.3667 41.9 88.6667 43.9 92.6 47.9C96.6 51.9 98.6 57.9333 98.6 66V97H79.6V69.1C79.6 65.3 78.8667 62.5 77.4 60.7C76 58.9 74 58 71.4 58C68.5333 58 66.2333 59 64.5 61C62.7667 63 61.9 66.0333 61.9 70.1V97H42.9V69.1C42.9 61.7 40.1667 58 34.7 58C31.7667 58 29.4333 59 27.7 61C25.9667 63 25.1 66.0333 25.1 70.1V97H6.1V42.8H24.2V48.5C26.2 46.3 28.5667 44.6667 31.3 43.6C34.1 42.4667 37.1333 41.9 40.4 41.9C44.2 41.9 47.6 42.6 50.6 44C53.6 45.4 56.0333 47.5333 57.9 50.4C60.0333 47.6667 62.7333 45.5667 66 44.1C69.2667 42.6333 72.8333 41.9 76.7 41.9ZM158.092 42.8V97H139.992V91.2C137.992 93.4 135.592 95.0667 132.792 96.2C129.992 97.3333 127.026 97.9 123.892 97.9C116.892 97.9 111.292 95.8333 107.092 91.7C102.959 87.5667 100.892 81.3667 100.892 73.1V42.8H119.892V70C119.892 74.0667 120.659 77.0333 122.192 78.9C123.726 80.7667 125.959 81.7 128.892 81.7C131.892 81.7 134.326 80.6667 136.192 78.6C138.126 76.4667 139.092 73.2333 139.092 68.9V42.8H158.092ZM210.03 82.8V97H160.03V85.8L185.13 56.9H160.73V42.8H209.03V53.9L183.93 82.8H210.03ZM237.997 41.9C246.997 41.9 253.864 43.9667 258.597 48.1C263.33 52.1667 265.697 58.4333 265.697 66.9V97H247.997V90C245.264 95.2667 239.93 97.9 231.997 97.9C227.797 97.9 224.164 97.1667 221.097 95.7C218.03 94.2333 215.697 92.2667 214.097 89.8C212.564 87.2667 211.797 84.4 211.797 81.2C211.797 76.0667 213.764 72.1 217.697 69.3C221.63 66.4333 227.697 65 235.897 65H246.697C246.364 59.2667 242.53 56.4 235.197 56.4C232.597 56.4 229.964 56.8333 227.297 57.7C224.63 58.5 222.364 59.6333 220.497 61.1L214.097 48.2C217.097 46.2 220.73 44.6667 224.997 43.6C229.33 42.4667 233.664 41.9 237.997 41.9ZM237.297 85.9C239.497 85.9 241.43 85.3667 243.097 84.3C244.764 83.2333 245.964 81.6667 246.697 79.6V74.9H238.497C232.964 74.9 230.197 76.7333 230.197 80.4C230.197 82.0667 230.83 83.4 232.097 84.4C233.364 85.4 235.097 85.9 237.297 85.9ZM338.79 41.9C345.457 41.9 350.757 43.9 354.69 47.9C358.69 51.9 360.69 57.9333 360.69 66V97H341.69V69.1C341.69 65.3 340.957 62.5 339.49 60.7C338.09 58.9 336.09 58 333.49 58C330.623 58 328.323 59 326.59 61C324.857 63 323.99 66.0333 323.99 70.1V97H304.99V69.1C304.99 61.7 302.257 58 296.79 58C293.857 58 291.523 59 289.79 61C288.057 63 287.19 66.0333 287.19 70.1V97H268.19V42.8H286.29V48.5C288.29 46.3 290.657 44.6667 293.39 43.6C296.19 42.4667 299.223 41.9 302.49 41.9C306.29 41.9 309.69 42.6 312.69 44C315.69 45.4 318.123 47.5333 319.99 50.4C322.123 47.6667 324.823 45.5667 328.09 44.1C331.357 42.6333 334.923 41.9 338.79 41.9Z" fill="#202020"/>
<line id="Line 17" x1="139.5" y1="76" x2="139.5" y2="97" stroke="#202020"/>
<line id="Line 14" x1="246" y1="64" x2="266" y2="64" stroke="#D6D6D6" stroke-width="2"/>
<line id="Line 15" x1="162" y1="81.8" x2="186" y2="81.8" stroke="#D6D6D6" stroke-width="2"/>
<line id="Line 16" x1="138" y1="68" x2="138" y2="96" stroke="#D6D6D6" stroke-width="2"/>
<line id="Line 18" x1="287.3" y1="46" x2="287.3" y2="97" stroke="#D6D6D6" stroke-width="2"/>
<line id="Line 19" x1="25.2" y1="45" x2="25.1999" y2="97" stroke="#D6D6D6" stroke-width="2"/>
</g>
</g>
</svg>
