<svg width="158" height="183" viewBox="0 0 158 183" fill="none" xmlns="http://www.w3.org/2000/svg">
<path d="M115.75 62.35C125.75 62.35 133.7 65.35 139.6 71.35C145.6 77.35 148.6 86.4 148.6 98.5V145H120.1V103.15C120.1 97.45 119 93.25 116.8 90.55C114.7 87.85 111.7 86.5 107.8 86.5C103.5 86.5 100.05 88 97.45 91C94.85 94 93.55 98.55 93.55 104.65V145H65.05V103.15C65.05 92.05 60.95 86.5 52.75 86.5C48.35 86.5 44.85 88 42.25 91C39.65 94 38.35 98.55 38.35 104.65V145H9.84995V63.7H37V72.25C40 68.95 43.55 66.5 47.65 64.9C51.85 63.2 56.4 62.35 61.3 62.35C67 62.35 72.1 63.4 76.6 65.5C81.1 67.6 84.75 70.8 87.55 75.1C90.75 71 94.8 67.85 99.7 65.65C104.6 63.45 109.95 62.35 115.75 62.35Z" fill="#FBFBFB"/>
<line x1="41.5" y1="64" x2="41.5" y2="145" stroke="#202020" stroke-width="12"/>
</svg>
