<svg width="107" height="107" viewBox="0 0 107 107" fill="none">
<path d="M87.6063 13.375H19.3938C16.05 13.375 13.375 16.05 13.375 19.0594V87.6063C13.375 90.6156 16.05 93.2906 19.3938 93.2906H87.6063C90.95 93.2906 93.625 90.6156 93.625 87.6063V19.0594C93.625 16.05 90.95 13.375 87.6063 13.375ZM37.1156 81.5875H25.4125V43.4688H37.1156V81.5875ZM31.4312 38.1187C27.7531 38.1187 24.4094 35.1094 24.4094 31.0969C24.4094 27.0844 27.4187 24.075 31.4312 24.075C35.1094 24.075 38.4531 27.0844 38.4531 31.0969C38.4531 35.1094 35.1094 38.1187 31.4312 38.1187ZM81.9219 81.2531H70.2188V62.5281C70.2188 58.1813 70.2188 52.1625 63.8656 52.1625C57.5125 52.1625 56.8438 57.1781 56.8438 61.8594V80.9188H45.1406V43.4688H56.175V48.4844H56.5094C58.1812 45.475 62.1937 42.1313 67.8781 42.1313C79.9156 42.1313 82.2563 50.1563 82.2563 60.5219V81.2531H81.9219Z" fill="white"/>
</svg>
