<svg width="229" height="229" viewBox="0 0 229 229" fill="none" xmlns="http://www.w3.org/2000/svg">
<path d="M192.36 65.2637C164.88 22.8987 108.775 10.3037 65.2653 36.6388C22.9003 62.9738 9.16028 120.224 36.6403 162.589L38.9303 166.024L29.7703 200.374L64.1203 191.214L67.5553 193.504C82.4403 201.519 98.4703 206.099 114.5 206.099C131.675 206.099 148.85 201.519 163.735 192.359C206.1 164.879 218.695 108.774 192.36 65.2637V65.2637ZM168.315 153.429C163.735 160.299 158.01 164.879 149.995 166.024C145.415 166.024 139.69 168.314 116.79 159.154C97.3253 149.994 81.2953 135.109 69.8453 117.934C62.9753 109.919 59.5403 99.6138 58.3953 89.3088C58.3953 80.1488 61.8303 72.1338 67.5553 66.4088C69.8453 64.1188 72.1353 62.9738 74.4253 62.9738H80.1503C82.4403 62.9738 84.7303 62.9738 85.8753 67.5538C88.1653 73.2788 93.8903 87.0188 93.8903 88.1638C95.0353 89.3088 95.0353 91.5988 93.8903 92.7438C95.0353 95.0338 93.8903 97.3238 92.7453 98.4688C91.6003 99.6138 90.4553 101.904 89.3103 103.049C87.0203 104.194 85.8753 106.484 87.0203 108.774C91.6003 115.644 97.3253 122.514 103.05 128.239C109.92 133.964 116.79 138.544 124.805 141.979C127.095 143.124 129.385 143.124 130.53 140.834C131.675 138.544 137.4 132.819 139.69 130.529C141.98 128.239 143.125 128.239 145.415 129.384L163.735 138.544C166.025 139.689 168.315 140.834 169.46 141.979C170.605 145.414 170.605 149.994 168.315 153.429V153.429Z" fill="white"/>
</svg>
