<svg width="896" height="872" viewBox="0 0 896 872" fill="none" xmlns="http://www.w3.org/2000/svg">
<path d="M448.4 0.300086C695.7 0.200086 896 200.4 896 447.5C896 642.9 770.7 809 596.2 870C572.7 875.9 576.3 859.2 576.3 847.8V770.3C712 786.2 717.5 696.4 726.6 681.4C745 650 788.5 642 775.5 627C744.6 611.1 713.1 631 676.6 684.9C650.2 724 598.7 717.4 572.6 710.9C566.9 687.4 554.7 666.4 537.9 650.1C678.5 624.9 737.1 539.1 737.1 437.1C737.1 387.6 720.8 342.1 688.8 305.4C709.2 244.9 686.9 193.1 683.9 185.4C625.8 180.2 565.4 227 560.7 230.7C527.7 221.8 490 217.1 447.8 217.1C405.4 217.1 367.6 222 334.3 231C323 222.4 267 182.2 213 187.1C210.1 194.8 188.3 245.4 207.5 305.1C175.1 341.9 158.6 387.8 158.6 437.4C158.6 539.6 217.6 625.5 358.6 650.3C346.523 662.177 336.934 676.341 330.392 691.966C323.85 707.59 320.488 724.361 320.5 741.3V853.8C319.7 862.8 320.5 871.7 305.5 871.7C128.4 812 0.900024 644.7 0.900024 447.6C0.900024 200.4 201.3 0.300086 448.4 0.300086V0.300086Z" fill="white"/>
</svg>
