<svg width="256" height="256" viewBox="0 0 256 256" fill="none" xmlns="http://www.w3.org/2000/svg">
<path d="M128 82C118.902 82 110.008 84.6979 102.444 89.7524C94.8791 94.8069 88.9832 101.991 85.5015 110.397C82.0199 118.802 81.109 128.051 82.8839 136.974C84.6588 145.897 89.0399 154.094 95.4731 160.527C101.906 166.96 110.103 171.341 119.026 173.116C127.949 174.891 137.198 173.98 145.603 170.498C154.009 167.017 161.193 161.121 166.248 153.556C171.302 145.992 174 137.098 174 128C173.986 115.804 169.135 104.112 160.512 95.4883C151.888 86.8646 140.196 82.0138 128 82V82ZM128 162C121.275 162 114.702 160.006 109.111 156.27C103.519 152.534 99.1615 147.224 96.5881 141.011C94.0147 134.799 93.3414 127.962 94.6533 121.367C95.9652 114.772 99.2034 108.713 103.958 103.958C108.713 99.2034 114.772 95.9652 121.367 94.6533C127.962 93.3414 134.799 94.0147 141.011 96.5881C147.224 99.1615 152.534 103.519 156.27 109.111C160.006 114.702 162 121.275 162 128C161.99 137.014 158.404 145.656 152.03 152.03C145.656 158.404 137.014 161.99 128 162V162ZM172 30H84C69.6833 30.0164 55.9578 35.7109 45.8344 45.8344C35.7109 55.9578 30.0164 69.6833 30 84V172C30.0164 186.317 35.7109 200.042 45.8344 210.166C55.9578 220.289 69.6833 225.984 84 226H172C186.317 225.984 200.042 220.289 210.166 210.166C220.289 200.042 225.984 186.317 226 172V84C225.984 69.6833 220.289 55.9578 210.166 45.8344C200.042 35.7109 186.317 30.0164 172 30ZM214 172C213.988 183.135 209.559 193.811 201.685 201.685C193.811 209.559 183.135 213.988 172 214H84C72.8647 213.988 62.1891 209.559 54.3153 201.685C46.4414 193.811 42.0124 183.135 42 172V84C42.0124 72.8647 46.4414 62.1891 54.3153 54.3153C62.1891 46.4414 72.8647 42.0124 84 42H172C183.135 42.0124 193.811 46.4414 201.685 54.3153C209.559 62.1891 213.988 72.8647 214 84V172ZM190 76C190 77.9778 189.414 79.9112 188.315 81.5557C187.216 83.2002 185.654 84.4819 183.827 85.2388C182 85.9957 179.989 86.1937 178.049 85.8079C176.109 85.422 174.327 84.4696 172.929 83.0711C171.53 81.6725 170.578 79.8907 170.192 77.9509C169.806 76.0111 170.004 74.0004 170.761 72.1732C171.518 70.3459 172.8 68.7841 174.444 67.6853C176.089 66.5865 178.022 66 180 66C182.651 66.0032 185.193 67.0578 187.068 68.9324C188.942 70.8071 189.997 73.3488 190 76V76Z" fill="white"/>
</svg>
